<?xml version="1.0" standalone="no"?>
<!DOCTYPE svg PUBLIC "-//W3C//DTD SVG 20010904//EN"
 "http://www.w3.org/TR/2001/REC-SVG-20010904/DTD/svg10.dtd">
<svg version="1.0" xmlns="http://www.w3.org/2000/svg"
 width="200.000000pt" height="200.000000pt" viewBox="0 0 200.000000 200.000000"
 preserveAspectRatio="xMidYMid meet">

<g transform="translate(0.000000,200.000000) scale(0.100000,-0.100000)"
fill="#000000" stroke="none">
<path d="M952 1543 c-31 -31 -49 -42 -60 -38 -37 16 -47 6 -124 -127 -63 -108
-82 -151 -90 -200 -26 -155 63 -307 214 -363 69 -25 185 -17 254 18 67 34 138
114 160 180 21 62 23 156 4 212 -11 34 -140 264 -161 289 -5 6 -19 4 -34 -4
-24 -13 -28 -11 -73 32 l-47 46 -43 -45z m93 -63 c30 -31 42 -37 56 -30 10 6
20 10 23 10 9 0 134 -216 146 -254 26 -82 -9 -226 -68 -279 -19 -17 -21 -17
-61 3 -22 12 -59 24 -81 27 -34 5 -40 9 -40 29 0 23 2 24 85 24 47 0 85 3 85
8 0 4 -9 22 -20 40 -25 40 -25 42 1 42 11 0 19 4 17 9 -7 21 -183 321 -188
321 -3 0 -20 -24 -36 -52 -17 -29 -61 -104 -97 -165 -64 -110 -65 -113 -40
-113 l25 0 -27 -45 c-14 -25 -22 -45 -18 -44 4 1 45 1 91 0 80 -1 83 -2 80
-23 -2 -17 -14 -24 -53 -33 -27 -6 -64 -19 -82 -28 -31 -17 -31 -17 -61 17
-47 53 -65 113 -61 198 4 69 8 80 73 193 37 66 70 122 72 124 2 2 15 -1 28 -7
21 -9 28 -6 62 29 21 21 41 39 44 39 3 0 23 -18 45 -40z m13 -230 c28 -48 52
-91 52 -94 0 -3 -9 -6 -20 -6 -25 0 -25 -2 5 -50 l25 -40 -120 0 c-130 0 -126
-2 -89 51 20 28 16 39 -12 39 -14 0 -6 19 38 95 31 52 59 95 62 95 3 0 30 -41
59 -90z m52 -352 l35 -16 -37 -16 c-57 -25 -114 -30 -174 -16 -76 19 -86 34
-32 54 53 19 158 16 208 -6z"/>
<path d="M700 657 c0 -86 8 -107 42 -107 22 0 24 26 3 34 -11 4 -15 23 -15 81
0 60 -3 75 -15 75 -12 0 -15 -16 -15 -83z"/>
<path d="M774 725 c-12 -30 1 -156 16 -165 22 -14 40 -12 40 5 0 8 -4 15 -10
15 -6 0 -10 33 -10 80 0 65 -3 80 -15 80 -9 0 -18 -7 -21 -15z"/>
<path d="M572 703 c-20 -53 -42 -127 -42 -140 0 -21 28 -15 35 7 5 14 15 20
37 20 21 0 31 -6 35 -20 5 -20 28 -27 36 -12 2 4 -8 43 -22 87 -21 63 -30 81
-47 83 -15 2 -24 -5 -32 -25z m42 -35 c10 -38 7 -48 -15 -48 -15 0 -19 4 -15
16 3 9 6 24 6 35 0 26 16 24 24 -3z"/>
<path d="M860 711 c-16 -31 -13 -127 6 -145 21 -22 104 -22 104 -1 0 11 -11
15 -40 15 -36 0 -40 3 -40 25 0 22 4 25 36 25 45 0 42 24 -4 28 -24 2 -32 8
-32 23 0 16 7 19 40 19 29 0 40 4 40 15 0 25 -96 21 -110 -4z"/>
<path d="M1000 614 c0 -50 3 -64 15 -64 11 0 15 12 15 51 0 47 2 50 23 47 19
-3 22 -10 25 -50 2 -34 7 -48 18 -48 10 0 14 13 14 50 0 47 2 50 25 50 23 0
25 -3 25 -50 0 -38 4 -50 15 -50 13 0 15 11 13 63 l-3 62 -92 1 -93 2 0 -64z"/>
<path d="M1220 590 c0 -70 3 -90 17 -101 11 -10 14 -10 9 -1 -4 6 -2 12 3 12
6 0 11 14 11 31 0 19 4 28 11 24 5 -4 21 -4 34 -1 29 7 44 64 27 101 -10 21
-18 24 -62 23 l-50 -1 0 -87z m75 29 c0 -24 -5 -35 -17 -37 -14 -3 -18 4 -18
31 0 18 3 37 7 41 15 14 28 -2 28 -35z"/>
<path d="M1364 666 c-11 -29 1 -51 34 -61 43 -12 41 -25 -4 -25 -24 0 -34 -4
-32 -12 5 -16 41 -22 75 -13 20 5 24 11 21 38 -3 28 -7 32 -35 35 -47 5 -44
32 2 32 19 0 35 5 35 10 0 16 -90 12 -96 -4z"/>
<path d="M902 475 c0 -16 2 -22 5 -12 2 9 2 23 0 30 -3 6 -5 -1 -5 -18z"/>
</g>
</svg>
