<svg fill="none" viewBox="0 0 613 369" xmlns="http://www.w3.org/2000/svg"><path d="m135.557 58.912c75.423-28.0368 152.082-3.2364 204.053 50.764 51.989 54.001 161.086-37.2729 218.956 16.637 39.482 36.801 21.402 131.384-32.747 172.366-73.591 55.692-297.412 27.437-345.825 17.964-55.783-10.927-96.5535-44.055-113.1268-84.256-39.9175-96.892 35.3608-161.0748 68.6898-173.475z" fill="#f7f4ff"/><path d="m358.002 80.4565c.302-2.7215.475-5.4646.475-8.2725 0-1.4687-.043-2.9374-.13-4.3846l-13.672-4.4278c-.842-5.7669-2.484-11.2531-4.838-16.3721l9.071-11.1451c-2.095-3.6934-4.492-7.1709-7.17-10.4323l-13.673 4.4494c-3.974-4.0606-8.531-7.5813-13.521-10.4108l.778-14.36332c-3.823-1.72793-7.797-3.15347-11.923-4.233418l-8.488 11.663538c-3.283-.5616-6.674-.8424-10.109-.8424-2.354 0-4.665.1296-6.954.3888l-7.819-12.0739c-4.191.842363-8.251 2.05191-12.139 3.58544l.022 14.38496c-5.141 2.5487-9.871 5.8318-14.061 9.6764l-13.413-5.1838c-2.851 3.1103-5.443 6.4797-7.733 10.0436l8.467 11.6203c-2.614 4.9893-4.557 10.3891-5.702 16.0913l-13.888 3.6934c-.303 2.7215-.476 5.4646-.476 8.2724 0 1.4688.044 2.9375.13 4.3846l13.672 4.4278c.843 5.767 2.484 11.2531 4.838 16.3721l-9.071 11.1455c2.095 3.693 4.492 7.171 7.171 10.432l13.672-4.449c3.974 4.06 8.532 7.581 13.521 10.41l-.778 14.364c3.823 1.728 7.798 3.153 11.923 4.233l8.445-11.642c3.283.562 6.674.843 10.109.843 2.354 0 4.665-.13 6.954-.389l7.819 12.074c4.191-.843 8.251-2.052 12.139-3.586l-.022-14.385c5.141-2.548 9.871-5.831 14.061-9.676l13.413 5.184c2.851-3.111 5.443-6.48 7.733-10.044l-8.467-11.62c2.614-4.9896 4.557-10.3893 5.702-16.0915zm-73.2 20.6275c-15.961 0-28.899-12.9383-28.899-28.9s12.938-28.8995 28.899-28.8995c15.962 0 28.9 12.9378 28.9 28.8995s-12.938 28.9-28.9 28.9z" fill="#a98ef1"/><path d="m324.221 105.144c-.238 0-.497-.086-.692-.259-.453-.389-.518-1.058-.129-1.512 7.257-8.7258 11.253-19.8061 11.253-31.1888 0-5.443-.886-10.7996-2.657-15.8969-.194-.5616.108-1.188.67-1.3824.561-.1944 1.188.108 1.382.6696 1.836 5.335 2.765 10.9075 2.765 16.6097 0 11.8794-4.169 23.4349-11.75 32.5718-.238.259-.54.388-.842.388z" fill="#fff"/><path d="m320.031 36.9343c-.26 0-.54-.108-.735-.3024-4.881-4.6006-10.54-8.0781-16.804-10.346-.561-.1943-.842-.8207-.648-1.3823.195-.5616.821-.8424 1.382-.648 6.545 2.3759 12.442 6.0046 17.539 10.7996.432.4103.454 1.1015.043 1.5335-.216.2376-.497.3456-.777.3456z" fill="#fff"/><path d="m273.593 24.9036c-.476 0-.929-.3239-1.037-.8207-.151-.5832.194-1.1664.777-1.3176 4.061-1.0367 8.273-1.5551 12.506-1.5551.605 0 1.08.4752 1.08 1.08 0 .6047-.475 1.0799-1.08 1.0799-4.06 0-8.078.4968-11.987 1.4903-.087.0216-.173.0432-.259.0432z" fill="#fff"/><path d="m125.769 263.4c.216-1.879.324-3.801.324-5.723 0-1.015-.044-2.031-.087-3.046l-9.46-3.067c-.583-3.996-1.728-7.797-3.348-11.339l6.285-7.733c-1.447-2.548-3.11-4.968-4.968-7.235l-9.46 3.088c-2.765-2.829-5.9181-5.248-9.374-7.214l.54-9.957c-2.6351-1.21-5.3997-2.182-8.2724-2.938l-5.8534 8.079c-2.2679-.389-4.6222-.584-6.998-.584-1.62 0-3.2399.087-4.8166.281l-5.4214-8.359c-2.8943.583-5.7021 1.426-8.402 2.484l.0216 9.957c-3.5639 1.771-6.8469 4.039-9.7412 6.696l-9.2876-3.585c-1.9655 2.16-3.7582 4.492-5.3566 6.955l5.8534 8.056c-1.8143 3.456-3.1535 7.214-3.9526 11.145l-9.6116 2.549c-.216 1.879-.324 3.801-.324 5.724 0 1.015.0432 2.03.0864 3.045l9.4604 3.067c.5831 3.996 1.7279 7.797 3.3478 11.34l-6.2853 7.732c1.4471 2.549 3.1103 4.968 4.9678 7.236l9.4604-3.089c2.7646 2.83 5.9181 5.249 9.374 7.214l-.54 9.957c2.6351 1.21 5.3997 2.182 8.2724 2.938l5.8534-8.078c2.2895.389 4.6222.583 6.9981.583 1.6199 0 3.2398-.086 4.8165-.281l5.4214 8.359c2.8943-.583 5.7021-1.426 8.402-2.484l-.0216-9.957c3.5639-1.771 6.8467-4.039 9.7407-6.696l9.288 3.586c1.966-2.16 3.758-4.493 5.357-6.955l-5.854-8.057c1.815-3.456 3.154-7.214 3.953-11.145zm-50.6935 14.299c-11.0587 0-20.0223-8.964-20.0223-20.022 0-11.059 8.9636-20.023 20.0223-20.023 11.0588 0 20.0224 8.964 20.0224 20.023 0 11.058-8.9852 20.022-20.0224 20.022z" fill="#a98ef1"/><path d="m102.355 280.831c-.237 0-.497-.086-.691-.259-.454-.389-.518-1.059-.13-1.512 4.99-5.983 7.733-13.586 7.733-21.383 0-3.737-.605-7.409-1.815-10.908-.194-.561.108-1.188.67-1.382s1.188.108 1.382.67c1.275 3.736 1.944 7.624 1.944 11.598 0 8.316-2.916 16.394-8.229 22.766-.238.28-.54.41-.864.41z" fill="#fff"/><path d="m99.461 233.594c-.2592 0-.54-.108-.7344-.303-3.3479-3.153-7.2141-5.529-11.5123-7.106-.5616-.194-.8424-.821-.648-1.382.1944-.562.8208-.842 1.3824-.648 4.579 1.663 8.7044 4.212 12.2683 7.56.432.41.454 1.101.043 1.533-.216.238-.4966.346-.799.346z" fill="#fff"/><path d="m67.2998 225.257c-.4752 0-.9288-.324-1.0368-.821-.1512-.583.1944-1.167.7776-1.318 2.8511-.713 5.7885-1.08 8.7476-1.08.6048 0 1.0799.475 1.0799 1.08s-.4751 1.08-1.0799 1.08c-2.7863 0-5.551.346-8.2076 1.015-.108.043-.1944.044-.2808.044z" fill="#fff"/><path d="m402.128 135.491c0-.562-.021-1.123-.043-1.663l7.085-5.702c-.562-2.852-1.426-5.573-2.571-8.143l-9.158-.692c-2.073-3.283-4.773-6.134-7.927-8.402l-.021-9.136c-2.549-1.339-5.27-2.3974-8.121-3.1318l-6.264 6.7388c-1.08-.108-2.182-.173-3.283-.173-2.765 0-5.421.368-7.97 1.059l-7.171-5.681c-2.7 1.166-5.249 2.657-7.581 4.406l1.36 9.05c-2.678 2.657-4.859 5.832-6.393 9.331l-8.92 2.074c-.756 2.764-1.21 5.637-1.318 8.596l7.862 4.557c.411 3.975 1.577 7.733 3.37 11.124l-3.931 8.251c1.684 2.311 3.628 4.428 5.788 6.285l8.424-3.305c3.304 2.16 7.084 3.694 11.123 4.407l3.975 8.186c.475.021.95.021 1.425.021 2.376 0 4.709-.216 6.977-.648l2.678-8.661c3.909-1.317 7.452-3.391 10.454-6.069l8.855 1.987c1.815-2.138 3.413-4.471 4.731-6.977l-5.141-7.538c1.08-3.196 1.706-6.609 1.706-10.151zm-30.649 13.348c-7.041 0-12.765-5.724-12.765-12.765s5.724-12.765 12.765-12.765c7.042 0 12.765 5.724 12.765 12.765s-5.723 12.765-12.765 12.765z" fill="#a98ef1"/><path d="m520.145 61.9463h-10.972c-4.233 0-7.689-3.4559-7.689-7.6893v-10.9723c0-4.2334 3.456-7.6892 7.689-7.6892h10.972c4.234 0 7.69 3.4558 7.69 7.6892v10.9723c-.022 4.2334-3.456 7.6893-7.69 7.6893zm-10.972-23.327c-2.57 0-4.665 2.0951-4.665 4.6654v10.9723c0 2.5703 2.095 4.6654 4.665 4.6654h10.972c2.571 0 4.666-2.0951 4.666-4.6654v-10.9723c0-2.5703-2.095-4.6654-4.666-4.6654z" fill="#e2d9fa" opacity=".64"/><path d="m468.502 61.9463h-10.972c-4.234 0-7.689-3.4559-7.689-7.6893v-10.9723c0-4.2334 3.455-7.6892 7.689-7.6892h10.972c4.234 0 7.689 3.4558 7.689 7.6892v10.9723c0 4.2334-3.455 7.6893-7.689 7.6893zm-10.972-23.327c-2.57 0-4.666 2.0951-4.666 4.6654v10.9723c0 2.5703 2.096 4.6654 4.666 4.6654h10.972c2.57 0 4.666-2.0951 4.666-4.6654v-10.9723c0-2.5703-2.096-4.6654-4.666-4.6654z" fill="#e2d9fa" opacity=".64"/><path d="m463.707 55.5529c-.021 0-.043 0-.064 0-.389-.0216-.735-.1944-.972-.4968l-7.884-10.2812c-.432-.5615-.324-1.3823.237-1.8143.562-.432 1.383-.324 1.815.2376l6.955 9.0716 18.165-19.4607c.496-.5184 1.317-.5616 1.836-.0648.518.4967.561 1.3175.064 1.8359l-19.201 20.5839c-.26.2376-.605.3888-.951.3888z" fill="#6f43e7"/><path d="m556.41 345.304c-44.926-2.203-197.739 1.533-244.198 2.981-46.482 1.447-100.414-1.923-128.45-6.869-28.014-4.946-190.00688.41-182.6416 13.716 7.34368 13.305 72.1624 5.939 145.6636 11.296 73.502 5.356 238.821-.67 276.101 0 37.28.669 71.493-1.339 119.529-4.018 48.037-2.678 40.023-15.832 13.996-17.106z" fill="#f0ecf9"/><path d="m97.2575 67.1731h-93.89104v153.9149h93.89104z" fill="#c5b4f5"/><path d="m94.1907 70.3265h-85.89944v144.9085h85.89944z" fill="#fff"/><path d="m33.9727 128.428c3.2398-6.955 8.7044-9.179 17.6896-9.179 10.6915 0 16.2641 3.866 17.8192 9.525-19.1584.259-35.5088-.346-35.5088-.346z" fill="#9bd6e8"/><path d="m47.9248 85.4245c-4.5358 1.2744-4.3198 3.823-5.8317 6.1773-1.512 2.3543-4.795 3.9311-5.1838 5.5078s1.0151 4.8594-.648 6.6954-2.2247 2.765-1.5767 4.601c.6479 1.836 2.0951 4.73 2.2247 5.119s1.9655 3.153 4.1902 3.542 6.4365 1.058 8.5316 1.966c2.0951.928 8.8556-1.167 12.5923-1.037 3.7366.129 6.3069-2.635 6.0261-4.471-.2592-1.836 2.7647-5.508 2.7647-8.661 0-3.391-3.9311-5.8969-4.9894-8.1432-1.0584-2.2247.1296-6.1773-3.8014-8.51-2.4839-1.4687-4.1902-1.3391-6.1774-2.0087-1.9439-.648-5.2269-1.5983-8.1212-.7776z" fill="#3a384d"/><path d="m53.4334 124.799c-1.0152 1.512-1.7711 1.577-2.8943 0-.8855-1.252-2.635-4.103-2.635-5.55v-14.407c0-1.447 1.1879-2.635 2.635-2.635h2.8943c1.4471 0 2.6351 1.188 2.6351 2.635v14.407c0 1.447-1.7063 4.19-2.6351 5.55z" fill="#f09959"/><path d="m53.4334 102.228h-2.8943c-1.4471 0-2.635 1.188-2.635 2.635v12.852c3.2398 1.037 6.1989-1.015 8.1428-3.326v-9.526c.0216-1.468-1.1664-2.635-2.6135-2.635z" fill="#e38540"/><path d="m51.9863 114.259c4.8192 0 8.726-5.328 8.726-11.901 0-6.5727-3.9068-11.901-8.726-11.901-4.8193 0-8.726 5.3283-8.726 11.901 0 6.573 3.9067 11.901 8.726 11.901z" fill="#f09959"/><path d="m56.0683 92.8978c-5.5077 9.3092-13.6506 8.4022-13.6506 8.4022s.1944-12.3332 6.6525-12.9812c6.4582-.648 10.2596 1.9439 11.5771 6.2205 1.3176 4.2766 0 7.1057 0 7.1057s-2.0951-1.641-3.1534-4.2546c-1.0368-2.6567-1.4256-4.4926-1.4256-4.4926z" fill="#3a384d"/><path d="m43.5689 106.279c1.1422-.543 1.4085-2.371.5948-4.084-.8137-1.714-2.3992-2.6629-3.5414-2.12-1.1422.542-1.4085 2.371-.5948 4.084s2.3992 2.662 3.5414 2.12z" fill="#f09959"/><path d="m59.4381 102.186c-.8208 1.727-.54 3.542.6047 4.103 1.1448.54 2.7431-.41 3.5423-2.116.8208-1.728.54-3.543-.6048-4.104-1.1447-.5617-2.7215.389-3.5422 2.117z" fill="#f09959"/><path d="m55.2692 108.816s-1.4687 1.901-3.283 1.901-3.2831-1.901-3.2831-1.901z" fill="#fff"/><path d="m62.3752 147.284h-22.031c-1.4039 0-2.5703-1.144-2.5703-2.57 0-1.404 1.1448-2.57 2.5703-2.57h22.031c1.404 0 2.5703 1.144 2.5703 2.57s-1.1447 2.57-2.5703 2.57z" fill="#c5b4f5"/><path d="m66.4145 155.168h-30.1091c-1.4039 0-2.5703-1.145-2.5703-2.57 0-1.404 1.1448-2.571 2.5703-2.571h30.1091c1.4039 0 2.5703 1.145 2.5703 2.571 0 1.404-1.1664 2.57-2.5703 2.57z" fill="#c5b4f5"/><path d="m87.9918 183.484h-73.2424c-.8208 0-1.4904-.669-1.4904-1.49s.6696-1.49 1.4904-1.49h73.2424c.8207 0 1.4903.669 1.4903 1.49s-.6912 1.49-1.4903 1.49z" fill="#c5b4f5"/><path d="m87.9918 190.396h-73.2424c-.8208 0-1.4904-.67-1.4904-1.49 0-.821.6696-1.491 1.4904-1.491h73.2424c.8207 0 1.4903.67 1.4903 1.491-.0216.82-.6912 1.49-1.4903 1.49z" fill="#c5b4f5"/><path d="m87.9918 197.308h-73.2424c-.8208 0-1.4904-.67-1.4904-1.491 0-.82.6696-1.49 1.4904-1.49h73.2424c.8207 0 1.4903.67 1.4903 1.49-.0216.821-.6912 1.491-1.4903 1.491z" fill="#c5b4f5"/><path d="m77.7321 130.135h-52.7449c-1.4687 0-2.6566-1.188-2.6566-2.657v-48.6197c0-1.4687 1.1879-2.6566 2.6566-2.6566h52.7449c1.4688 0 2.6567 1.1879 2.6567 2.6566v48.6197c0 1.469-1.1879 2.657-2.6567 2.657zm-52.7449-51.7734c-.2591 0-.4967.216-.4967.4967v48.6197c0 .259.216.497.4967.497h52.7449c.2592 0 .4968-.216.4968-.497v-48.6197c0-.2591-.216-.4967-.4968-.4967z" fill="#c5b4f5"/><path d="m32.5901 161.842 1.5335 3.089 3.4127.496-2.4623 2.419.5832 3.391-3.0671-1.598-3.0455 1.598.5832-3.391-2.4623-2.419 3.4127-.496z" fill="#c5b4f5"/><path d="m45.1176 161.842 1.5119 3.089 3.4126.496-2.4623 2.419.5832 3.391-3.0454-1.598-3.0671 1.598.5832-3.391-2.4623-2.419 3.4126-.496z" fill="#c5b4f5"/><path d="m57.6237 161.842 1.5119 3.089 3.4342.496-2.4839 2.419.5832 3.391-3.0454-1.598-3.0671 1.598.5832-3.391-2.4623-2.419 3.4126-.496z" fill="#c5b4f5"/><path d="m70.1293 161.842 1.5335 3.089 3.4127.496-2.4839 2.419.5832 3.391-3.0455-1.598-3.0671 1.598.6048-3.391-2.4839-2.419 3.4127-.496z" fill="#c5b4f5"/><path d="m306.596 67.1731h-93.891v153.9149h93.891z" fill="#c5b4f5"/><path d="m303.529 70.3265h-85.899v144.9085h85.899z" fill="#fff"/><path d="m247.393 101.581c0 6.89 4.147 18.013 13.931 17.668 9.785-.368 11.966-10.951 12.334-13.953.388-3.003-26.265-3.715-26.265-3.715z" fill="#7a4e34"/><path d="m243.311 128.428c3.24-6.955 8.704-9.18 17.689-9.18 10.692 0 16.265 3.867 17.82 9.526-19.137.259-35.509-.346-35.509-.346z" fill="#d54a41"/><path d="m262.772 124.8c-1.016 1.512-1.772 1.576-2.895 0-.885-1.253-2.635-4.104-2.635-5.551v-14.407c0-1.447 1.188-2.635 2.635-2.635h2.895c1.447 0 2.635 1.188 2.635 2.635v14.407c0 1.447-1.707 4.19-2.635 5.551z" fill="#f09959"/><path d="m262.772 102.229h-2.873c-1.447 0-2.635 1.187-2.635 2.635v12.851c3.24 1.037 6.199-1.015 8.143-3.326v-9.525c0-1.469-1.188-2.635-2.635-2.635z" fill="#e38540"/><path d="m261.346 114.259c4.819 0 8.726-5.328 8.726-11.901 0-6.5727-3.907-11.901-8.726-11.901s-8.726 5.3283-8.726 11.901c0 6.573 3.907 11.901 8.726 11.901z" fill="#f09959"/><path d="m266.141 93.3297c-1.037 3.6502-3.305 3.607-6.48 4.8166-3.175 1.2095-4.687 2.4187-5.723 4.7517-1.318 2.981.604 11.685.604 11.685s-8.013-6.004-7.106-15.4432c.929-9.4388 6.502-13.089 11.729-13.089 5.248 0 7.235 3.1966 7.235 3.1966s2.787.0216 5.422 3.1319c3.542 4.2118 2.462 14.4067 0 18.0567-2.463 3.65-4.104 4.795-4.039 4.644.064-.173 2.289-8.553 1.101-13.759-1.188-5.205-2.743-7.9913-2.743-7.9913z" fill="#7a4e34"/><path d="m264.607 108.816s-1.468 1.901-3.283 1.901c-1.814 0-3.283-1.901-3.283-1.901z" fill="#fff"/><g fill="#c5b4f5"><path d="m271.714 147.284h-22.031c-1.404 0-2.571-1.144-2.571-2.57 0-1.404 1.145-2.57 2.571-2.57h22.031c1.404 0 2.57 1.144 2.57 2.57s-1.145 2.57-2.57 2.57z"/><path d="m275.753 155.168h-30.109c-1.404 0-2.571-1.145-2.571-2.57 0-1.404 1.145-2.571 2.571-2.571h30.109c1.404 0 2.57 1.145 2.57 2.571 0 1.404-1.145 2.57-2.57 2.57z"/><path d="m297.33 183.484h-73.242c-.821 0-1.491-.669-1.491-1.49s.67-1.49 1.491-1.49h73.242c.821 0 1.49.669 1.49 1.49s-.669 1.49-1.49 1.49z"/><path d="m297.33 190.396h-73.242c-.821 0-1.491-.67-1.491-1.49 0-.821.67-1.491 1.491-1.491h73.242c.821 0 1.49.67 1.49 1.491 0 .82-.669 1.49-1.49 1.49z"/><path d="m297.33 197.308h-73.242c-.821 0-1.491-.67-1.491-1.491 0-.82.67-1.49 1.491-1.49h73.242c.821 0 1.49.67 1.49 1.49 0 .821-.669 1.491-1.49 1.491z"/><path d="m287.07 130.135h-52.744c-1.469 0-2.657-1.188-2.657-2.657v-48.6197c0-1.4687 1.188-2.6566 2.657-2.6566h52.744c1.469 0 2.657 1.1879 2.657 2.6566v48.6197c0 1.469-1.188 2.657-2.657 2.657zm-52.744-51.7734c-.26 0-.497.216-.497.4967v48.6197c0 .259.216.497.497.497h52.744c.26 0 .497-.216.497-.497v-48.6197c0-.2591-.216-.4967-.497-.4967z"/><path d="m241.95 161.842 1.512 3.089 3.412.496-2.462 2.419.583 3.391-3.045-1.598-3.067 1.598.583-3.391-2.462-2.419 3.412-.496z"/><path d="m254.456 161.842 1.512 3.089 3.434.496-2.484 2.419.583 3.391-3.045-1.598-3.067 1.598.583-3.391-2.462-2.419 3.412-.496z"/><path d="m266.962 161.842 1.533 3.089 3.413.496-2.484 2.419.583 3.391-3.045-1.598-3.067 1.598.583-3.391-2.462-2.419 3.412-.496z"/><path d="m279.467 161.842 1.534 3.089 3.412.496-2.483 2.419.583 3.391-3.046-1.598-3.045 1.598.583-3.391-2.484-2.419 3.413-.496z"/><path d="m223.267 219.554h-148.1916l10.4756-151.7979h143.051z" opacity=".2"/><path d="m218.882 39.0293h-128.2553v210.2237h128.2553z"/></g><path d="m214.67 43.306h-117.326v197.912h117.326z" fill="#fff"/><path d="m145.078 84.884c-.087-.2376-2.139-12.0306-2.376-16.6096-.238-4.579 7.365-5.2486 7.365-5.2486s6.221-3.3479 10.735-1.6415c4.492 1.7279 7.559 4.6222 9.611 8.2076 2.052 3.607-1.792 14.8385-1.792 14.8385z" fill="#2e2d3d"/><path d="m130.974 122.769c-.022-.195.518-4.838.54-5.011 1.036-9.763 13.089-12.528 25.098-12.528 14.125 0 23.694 2.592 25.227 12.744.044.302.864 4.946.821 5.27-26.178.324-51.686-.475-51.686-.475z" fill="#d5e1e8"/><path d="m159.031 112.812c-1.404 2.073-2.419 2.16-3.953 0-1.209-1.707-5.248-5.616-5.248-7.582l1.663-19.6547c0-1.9655 1.62-3.5854 3.585-3.5854h3.953c1.965 0 3.585 1.6199 3.585 3.5854l.778 19.6547c0 1.966-3.11 5.724-4.363 7.582z" fill="#f09959"/><path d="m159.031 81.9683h-3.953c-1.965 0-3.585 1.6199-3.585 3.5854l-1.447 17.4523c4.428 1.404 10.41-1.447 13.046-4.6225l-.497-12.8298c.021-1.9655-1.599-3.5854-3.564-3.5854z" fill="#e38540"/><path d="m143.522 106.656 6.329 11.685s3.391-2.786 3.715-2.246-.605 7.43-.605 7.43 7.538.108 7.862-.216-1.533-7.474-.756-7.474c.756 0 3.067 2.074 3.067 2.074l7.063-11.253-1.555-.367-11.555 6.22-12.377-6.091z" fill="#bdccd4"/><path d="m150.758 112.034 4.687 3.154-1.447 8.358 6.329-.345-1.577-7.603 3.888-3.564-1.836-1.728h-8.208z" fill="#d54a41"/><path d="m150.175 100.932-5.81 5.529s5.918 10.519 6.242 10.519 5.011-5.81 5.011-5.81l3.002-.043 4.752 4.989 5.508-9.763-5.616-5.961s-4.795 9.288-5.68 9.504c-.864.216-.886.324-1.577-.216s-5.832-8.748-5.832-8.748z" fill="#d5e1e8"/><path d="m157.065 98.4265c6.585 0 11.923-7.272 11.923-16.2425s-5.338-16.2425-11.923-16.2425c-6.584 0-11.922 7.272-11.922 16.2425s5.338 16.2425 11.922 16.2425z" fill="#f09959"/><path d="m146.352 81.9249c1.123 2.3543.756 4.8598-.821 5.5941-1.555.7344-3.736-.5615-4.859-2.8942-1.124-2.3543-.756-4.8598.82-5.5942 1.577-.7559 3.759.54 4.86 2.8943z" fill="#f09959"/><path d="m167.217 81.9249c-1.123 2.3543-.756 4.8598.821 5.5941 1.555.7344 3.736-.5615 4.859-2.8942 1.124-2.3543.756-4.8598-.82-5.5942-1.577-.7559-3.737.54-4.86 2.8943z" fill="#f09959"/><path d="m162.357 88.8365s-2.376 3.8447-5.292 3.8447c-2.915 0-5.291-3.8447-5.291-3.8447z" fill="#fff"/><path d="m150.067 71.1253c4.903-3.4342 7.128-2.8727 10.8 2.7863 3.693 5.6589 8.099 5.7453 8.099 5.7453l.583-5.8533s-5.486-10.6267-12.851-9.2228c-7.365 1.3823-11.555 8.0132-11.555 8.0132s-.368 12.4195.669 12.8515 1.145-4.0174 1.879-4.903c.735-.9072-.734-5.1622.238-7.1277.993-1.9655 2.138-2.2895 2.138-2.2895z" fill="#2e2d3d"/><path d="m165.878 77.5186c1.706 1.8791 1.058 9.3307 1.965 9.2443.907-.0863 1.231-7.1276.972-7.862-.237-.7344-2.937-1.3823-2.937-1.3823z" fill="#2e2d3d"/><path d="m183.567 148.45h-54.753c-1.922 0-3.499-1.577-3.499-3.499s1.577-3.499 3.499-3.499h54.753c1.923 0 3.5 1.577 3.5 3.499s-1.577 3.499-3.5 3.499z" fill="#c5b4f5"/><path d="m176.764 159.185h-41.125c-1.922 0-3.499-1.577-3.499-3.499s1.577-3.499 3.499-3.499h41.125c1.922 0 3.499 1.577 3.499 3.499 0 1.944-1.577 3.499-3.499 3.499z" fill="#c5b4f5"/><path d="m206.203 197.869h-100.025c-1.123 0-2.03-.907-2.03-2.03s.907-2.031 2.03-2.031h100.025c1.123 0 2.031.908 2.031 2.031s-.908 2.03-2.031 2.03z" fill="#c5b4f5"/><path d="m206.203 207.308h-100.025c-1.123 0-2.03-.907-2.03-2.031 0-1.123.907-2.03 2.03-2.03h100.025c1.123 0 2.031.907 2.031 2.03 0 1.124-.908 2.031-2.031 2.031z" fill="#c5b4f5"/><path d="m206.203 216.746h-100.025c-1.123 0-2.03-.907-2.03-2.03s.907-2.03 2.03-2.03h100.025c1.123 0 2.031.907 2.031 2.03s-.908 2.03-2.031 2.03z" fill="#c5b4f5"/><path d="m192.228 124.626h-72.054c-1.771 0-3.24-1.447-3.24-3.239v-66.3959c0-1.7711 1.447-3.2399 3.24-3.2399h72.054c1.772 0 3.24 1.4472 3.24 3.2399v66.3959c-.021 1.771-1.468 3.239-3.24 3.239zm-72.054-70.7149c-.583 0-1.08.4752-1.08 1.08v66.3959c0 .583.475 1.08 1.08 1.08h72.054c.584 0 1.08-.476 1.08-1.08v-66.3959c0-.5832-.475-1.08-1.08-1.08z" fill="#c5b4f5"/><path d="m121.902 168.321 2.074 4.234 4.665.669-3.369 3.305.799 4.644-4.169-2.203-4.19 2.203.799-4.644-3.369-3.305 4.665-.669z" fill="#c5b4f5"/><path d="m138.987 168.321 2.073 4.234 4.666.669-3.37 3.305.8 4.644-4.169-2.203-4.19 2.203.799-4.644-3.37-3.305 4.666-.669z" fill="#c5b4f5"/><path d="m156.072 168.321 2.073 4.234 4.666.669-3.37 3.305.799 4.644-4.168-2.203-4.191 2.203.8-4.644-3.37-3.305 4.666-.669z" fill="#c5b4f5"/><path d="m173.157 168.321 2.073 4.234 4.666.669-3.37 3.305.799 4.644-4.168-2.203-4.19 2.203.799-4.644-3.37-3.305 4.666-.669z" fill="#c5b4f5"/><path d="m190.501 168.321 2.095 4.234 4.665.669-3.391 3.305.799 4.644-4.168-2.203-4.169 2.203.799-4.644-3.369-3.305 4.665-.669z" fill="#c5b4f5"/><path d="m424.872 242.492h-164.585c-.993 0-1.792-.799-1.792-1.792v-2.679c0-.993.799-1.792 1.792-1.792h164.585c.994 0 1.793.799 1.793 1.792v2.679c0 .993-.799 1.792-1.793 1.792z" fill="#6f43e7"/><path d="m467.249 152.23c2.225 7.862-3.218 15.962-9.222 17.668-6.005 1.706-10.281-3.65-12.506-11.512s.821-15.616 6.825-17.323c6.005-1.684 12.679 3.305 14.903 11.167z" fill="#f09959"/><path d="m433.62 304.568s15.379 23.889 17.452 24.925c2.074 1.037 7.279 1.296 5.314 5.184-1.944 3.888-2.722 19.202-4.536 19.979-1.815.778-17.388 2.592-15.055 0s3.78-1.296 4.946-5.961c1.188-4.665 2.83-13.499.627-15.314-2.203-1.814-15.703-18.165-15.703-18.165z" fill="#f09959"/><path d="m356.23 314.828s-18.683 30.8-22.16 33.565c-3.456 2.764-14.882 6.933-5.53 7.624 9.353.691 13.845-3.11 19.72-4.838s13.154-2.765 10.39-7.279c-2.765-4.493-1.62-14.32 4.341-20.562 5.961-6.221-6.761-8.51-6.761-8.51z" fill="#f09959"/><path d="m451.612 243.4s-46.265-1.21-64.625 13.845c-10.734 16.264-36.696 64.257-38.705 69.549 1.382 1.382 9.18 3.888 12.635 3.542 10.217-12.182 23.716-22.701 29.073-32.247 6.609-11.772 8.661-17.647 19.374-18.684 10.735-1.036 34.969-4.492 42.226-4.492s.022-31.513.022-31.513z" fill="#474a56"/><path d="m491.959 356.104h-2.441l-17.387-72.552h5.335z" fill="#6f43e7"/><path d="m419.3 356.104h2.419l19.957-75.122h-5.335z" fill="#6f43e7"/><path d="m477.963 240.225-26.891 4.644s-35.747.324-52.097 3.369c-14.86 2.765-17.063 19.655 0 42.917 9.698 13.219 17.884 23.759 34.645 35.639 4.255-3.132 5.896-4.32 7.063-11.837-1.21-1.663-4.342-12.073-5.335-14.104-9.266-19.374-21.642-26.415-21.815-28.316 2.073-3.37 55.012 17.582 65.531 5.248 10.065-11.771-1.101-37.56-1.101-37.56z" fill="#474a56"/><path d="m479.086 179.337c-7.085-.994-14.299.345-21.059 5.248-5.897 6.005-12.571 15.919-12.16 32.269.518 20.757-3.219 22.096.669 27.82 16.243 6.696 44.019 35.53 37.474 4.622-4.73-22.376 10.389-39.029-1.814-63.847-.972-2.03-2.225-3.995-3.11-6.112z" fill="#f37168"/><path d="m445.867 224.652c-.324 10.821-1.836 14.018-.67 17.409 6.631.669 18.726 3.326 21.75 7.559 3.456 4.838 6.933 5.53 5.314 1.966-1.62-3.586-5.875-8.661.691-26.07 6.566-17.431 9.698-29.181 3.24-41.298z" fill="#d54a41"/><path d="m479.086 179.337c-4.363-10.324-5.443-21.923-5.443-21.923l-11.426 3.37s6.48 14.536.259 19.719c-1.317 1.102-2.851 2.441-4.449 4.061 6.76-4.881 13.974-6.22 21.059-5.227z" fill="#f09959"/><path d="m473.988 160.157c-.669-.605-1.533-1.361-2.419-2.138l-9.309 2.743c0 .021-.021.043-.021.043.216.518 2.591 6.048 2.915 11.383 2.787-1.685 5.811-4.428 9.288-9.223-.194-1.059-.346-2.009-.454-2.808z" fill="#e38540"/><path d="m471.051 182.577c-11.772 4.104-10.454 16.501-21.275 34.774-5.594 9.461-10.8 9.309-10.8 9.309s-13.132.108-29.029-1.836c-9.957-1.209-10.583 1.75-3.672 4.212 13.953 4.99 28.446 10.368 40.131 9.072 11.686-1.296 31.665-31.103 32.701-38.857 1.404-10.713-2.138-18.748-8.056-16.674z" fill="#f09959"/><path d="m464.982 286.576c-.735 0-1.491 0-2.247-.021-9.59-.238-16.112-1.556-21.361-2.635-6.113-1.253-9.504-1.923-13.413-.065-1.512.712-3.305.086-4.039-1.426s-.086-3.304 1.425-4.039c5.746-2.743 10.562-1.771 17.237-.41 5.011 1.015 11.253 2.289 20.303 2.505 10.13.259 16.307-1.252 19.439-4.73 2.786-3.089 3.607-8.294 2.57-16.372-.345-2.765-.713-5.054-1.015-7.085-.886-5.723-1.469-9.503-.734-15.335.669-5.421 2.462-12.635 6.63-26.653.476-1.598 2.16-2.506 3.759-2.03 1.598.475 2.505 2.159 2.03 3.758-7.754 26.091-7.365 28.64-5.702 39.332.324 2.052.669 4.406 1.037 7.235 1.274 9.958-.022 16.675-4.083 21.189-4.168 4.665-10.95 6.782-21.836 6.782z" fill="#6f43e7"/><path d="m357.483 340.79c-12.398 6.069-19.072 9.547-23.046 9.201-.929-.086-1.706-.173-2.376-.281-4.428 2.614-11.491 5.703-3.542 6.286 9.352.691 13.845-3.11 19.72-4.838s13.154-2.765 10.389-7.279c-.518-.821-.907-1.901-1.145-3.089z" fill="#d54a41"/><path d="m452.411 330.012c-.302 9.827-1.663 19.547-7.668 21.383-1.598.497-3.045.561-4.319.389-.951 1.166-2.095 1.188-3.651 2.894-2.332 2.592 13.241.778 15.055 0s2.592-16.091 4.536-19.979c1.62-3.197-1.599-3.953-3.953-4.687z" fill="#d54a41"/><path d="m404.634 237.071h-39.397c-1.166 0-2.246-.691-2.743-1.749l-15.918-34.278c-.713-1.512-.043-3.305 1.468-4.017 1.512-.713 3.305-.044 4.018 1.468l15.119 32.507h37.475c1.663 0 3.024 1.361 3.024 3.024s-1.361 3.045-3.046 3.045z" fill="#75a1de"/><path d="m412.885 225.192c-7.97-.108-15.854-4.86-19.785-4.169s-16.739 9.568-15.119 9.914 11.771-4.924 12.117-4.989c.345-.087 2.549 3.65 7.97 5.011 5.421 1.36.043-4.061 16.847 1.015 10.929 3.304-2.03-6.782-2.03-6.782z" fill="#f09959"/><path d="m477.92 169.898 1.166 9.417s-10.303.605-15.422 3.499c-5.119 2.895-12.7 11.21-12.7 11.21l6.177-10.648.886-6.804z" fill="#f2e5de"/><path d="m473.535 181.432c-7.646-1.425-11.188 5.422-16.156 16.61s-13.435 24.774-15.119 26.545c-1.685 1.75-28.382 0-28.382 0s-.799 7.733 0 8.661c.8.929 5.422.8 5.422.8s1.836 1.468 3.585 2.635c1.728 1.166 16.394 3.369 23.198 3.002 6.803-.367 13.046-.929 13.953-1.966.928-1.036 19.504-29.655 20.648-39.915 1.145-10.238-3.261-15.637-7.149-16.372z" fill="#f2e5de"/><path d="m450.964 134.368c-14.471.691-12.204 22.463-12.204 22.463s3.759 1.166 11.642-.13c-.604-2.333-.345-8.315-.345-8.315s.907 4.838 2.073 7.797c1.663.756 3.543.086 6.739-.691 1.642 6.911 6.286 9.849 9.461 10.842 3.52 1.102 7.235 2.419 11.382.346 4.147-2.074 1.88-23.305-.345-27.582-3.305-6.415-8.813-12.139-18.338-9.115-4.73 1.512-10.065 4.385-10.065 4.385z" fill="#303c60"/><path d="m476.127 160.222 5.918 8.639s-6.566 16.394 12.506 23.803c14.946 5.81 13.175 16.048 6.436 26.35-6.739 10.303 4.039 19.288 4.039 19.288s1.642-11.404 16.156-13.564c19.785-2.937 25.401-29.504 10.606-42.788-12.225-10.994-15.94-1.879-24.235-11.749-8.272-9.871-23.91-3.197-23.91-3.197l-5.723-8.359z" fill="#303c60"/><path d="m538.591 208.733c-.086 0-.173-.021-.259-.065-.259-.129-.346-.453-.216-.712 4.968-9.094.907-20.109-1.123-23.09-.216-.324-.432-.626-.648-.972-2.009-3.132-4.493-7.019-17.819-9.417-3.219-.583-5.81-2.484-8.554-4.514-5.68-4.169-12.117-8.899-26.113-2.462-.259.129-.583 0-.691-.26-.13-.259 0-.583.259-.691 14.558-6.695 21.254-1.771 27.172 2.571 2.656 1.944 5.162 3.779 8.121 4.319 13.78 2.484 16.415 6.588 18.532 9.893.216.324.41.648.626.95 2.139 3.132 6.394 14.666 1.188 24.191-.108.173-.28.259-.475.259z" fill="#303c60"/><path d="m472.974 169.077c-.951 0-1.966-.086-3.068-.237-5.054-.756-11.857-3.629-12.397-19.785 0-.281.216-.54.518-.54s.54.216.54.518c.216 6.653 1.533 11.577 3.931 14.645 1.814 2.332 4.212 3.628 7.56 4.147 4.687.691 7.797-.173 9.222-2.571.152-.259.476-.324.713-.173.259.152.324.476.173.713-1.296 2.182-3.715 3.283-7.192 3.283z" fill="#303c60"/><path d="m276.141 356.104h3.888l15.119-115.62h-8.553z" fill="#6f43e7"/><path d="m408.09 356.104h-3.888l-15.141-115.62h8.553z" fill="#6f43e7"/><path d="m560.557 258.519c6.718 6.134 3.802 12.29-1.166 23.694-4.968 11.405-5.853 53.523-5.853 53.523l4.103-.583s-.583-43.285 4.968-54.992c5.551-11.706 7.905-17.538 12.873-13.737 4.968 3.802-14.925-7.905-14.925-7.905z" fill="#74b570"/><path d="m556.864 250.549c.821-3.65 5.659-7.581 12.16-10.929-.972 5.378-4.061 14.147-.864 15.94 4.32 2.419.41-9.827 2.095-16.566 6.091-2.981 13.413-5.4 20.174-6.61 0 .022-.022.044-.022.065-3.801 9.655-8.769 13.456-6.717 14.925 1.533 1.102 6.566-10.043 13.175-15.767 4.968-.259 9.18.41 11.664 2.376 3.844 3.045 6.436 5.745 2.57 15.011-2.203 1.577-5.076 2.721-8.402 3.045-8.769.886-12.873 1.167-6.717 4.104 3.002 1.426 8.056-.086 12.138-.993-1.317 2.44-2.959 5.205-4.946 8.359-1.252 1.987-2.635 3.736-4.104 5.227-2.829.539-5.291.539-6.609-.022-4.104-1.75-14.622-7.322-17.258-4.968-2.57 2.29 19.504 3.737 17.971 9.569-10.692 6.155-22.938 3.239-25.12-2.42-2.916-7.581-13.651-9.374-11.188-20.346z" fill="#9cd499"/><path d="m578.981 292.149c-11.706-8.769-23.694-.583-29.828 8.769s-1.75 30.411-1.75 30.411 2.333 0 2.333-.885c0-.886-6.436-24.861 8.769-35.682 9.526-6.76 16.373-3.499 17.258-.302.886 3.197-3.801 9.071-3.801 9.071z" fill="#74b570"/><path d="m552.069 274.114c11.706 0 15.508 18.143 12.29 28.662-3.219 10.519-7.603 30.131-7.603 30.131l-2.916-2.916s11.123-27.496 8.488-39.786-9.071-14.342-10.238-14.342c-1.188 0-.021-1.749-.021-1.749z" fill="#9cd499"/><path d="m561.896 302.862c.821-1.08 1.836-1.987 3.089-2.592-.173.864-.367 1.707-.605 2.506-1.468 4.795-3.175 11.469-4.6 17.322-.13-.756-.324-1.901-.648-3.693-.065-.411-.13-.886-.173-1.361 1.145-3.888 2.225-8.121 2.937-12.182z" fill="#74b570"/><path d="m565.093 302.948c22.225-9.352 10.519-22.203 30.109-13.715 1.382.605 3.067 2.095 4.752 4.19-1.75.497-3.866.843-6.199.497-5.853-.885-3.802 3.802 5.853 4.968 1.815.216 3.305.518 4.514.95 4.601 8.834 6.675 20.455-3.067 24.494-1.922.799-4.276 1.252-6.933 1.425-3.002-2.376.734-16.199-3.888-14.299-4.449 1.836 1.383 11.837.583 14.364-4.384-.087-9.244-.799-13.888-1.944-1.836-1.037-3.24-2.419-3.672-4.233-1.468-6.135 8.186-9.936 8.489-15.206.259-4.838-3.542 10.648-13.629 12.916-9.115-4.255-13.413-10.044-3.024-14.407z" fill="#9cd499"/><path d="m549.261 286.404c2.333-4.968-3.802-6.135-3.499-2.333.259 3.369.281 11.555-3.175 13.78-5.961-.648-14.061-3.045-20.195-6.717-.087-.497 0-.994.259-1.534 2.635-5.27 19.59-9.655 14.342-11.404-4.191-1.404-11.534 6.847-17.452 11.015-3.564-2.699-5.94-5.918-5.94-9.503 0-4.86 5.896-10.368 13.543-12.981 3.434.345 6.63 2.225 11.62 5.054 7.365 4.169 5.659-2.57-1.296-6.588 6.004.303 12.009 2.873 16.415 9.007 0 0-.41 2.614 2.354 6.674 7.582 11.059-1.166 17.539-11.62 17.107.562-2.895 3.024-8.143 4.644-11.577z" fill="#9cd499"/><path d="m578.29 291.652c5.724 4.428 12.074 9.59 19.871 13.089 7.798 3.499 6.242 14.947 6.242 14.947s1.167-9.871-5.335-13.262c-6.501-3.37-10.799-7.409-15.724-8.186-4.924-.778-7.667-1.555-7.667-1.555s1.555-3.111.647-4.299c-.907-1.188 1.966-.734 1.966-.734z" fill="#74b570"/><path d="m606.477 239.75c-20.929 5.594-36.265 18.985-39.138 22.225-2.851 3.24-2.851 4.169-2.851 4.169l2.203 4.168 1.037-.518s-1.684-3.521 2.722-8.057c7.624-7.84 16.89-14.039 23.262-16.761 6.393-2.764 12.765-5.226 12.765-5.226z" fill="#74b570"/><path d="m548.699 355.607h7.992c5.681 0 10.303-4.601 10.303-10.303v-18.381h-28.597v18.381c.021 5.681 4.622 10.303 10.302 10.303z" fill="#75a1de"/><path d="m567.015 330.207h-28.597v2.008h28.597z" fill="#fff"/><path d="m567.015 333.878h-28.597v1.188h28.597z" fill="#fff"/></svg>